<svg width="40" height="40" viewBox="0 0 40 40" fill="none" xmlns="http://www.w3.org/2000/svg">
<path d="M7.85388 23.8542L16.7914 32.8334C17.2112 33.2535 17.7097 33.5868 18.2585 33.8142C18.8072 34.0416 19.3953 34.1587 19.9893 34.1587C20.5833 34.1587 21.1714 34.0416 21.7201 33.8142C22.2688 33.5868 22.7674 33.2535 23.1872 32.8334L37.7705 18.0834C38.6103 17.2266 39.0807 16.0747 39.0807 14.875C39.0807 13.6753 38.6103 12.5234 37.7705 11.6667L28.8122 2.68752C28.3956 2.26549 27.8993 1.93041 27.3521 1.7017C26.8049 1.47299 26.2178 1.35522 25.6247 1.35522C25.0317 1.35522 24.4445 1.47299 23.8973 1.7017C23.3502 1.93041 22.8539 2.26549 22.4372 2.68752L7.85388 17.4375C7.01409 18.2943 6.5437 19.4462 6.5437 20.6459C6.5437 21.8456 7.01409 22.9974 7.85388 23.8542V23.8542Z" stroke="black" stroke-width="1.5" stroke-linecap="round" stroke-linejoin="round"/>
<path d="M6.47904 22.6876L2.12488 27.0418C1.28509 27.8985 0.814697 29.0504 0.814697 30.2501C0.814697 31.4498 1.28509 32.6017 2.12488 33.4585L6.47904 37.8335C7.02434 38.3129 7.71285 38.5985 8.43738 38.646H12.4165C13.1356 38.6019 13.8186 38.3155 14.354 37.8335L17.7499 34.4376" stroke="black" stroke-width="1.5" stroke-linecap="round" stroke-linejoin="round"/>
<path d="M26.0833 38.6249H36.8124" stroke="black" stroke-width="1.5" stroke-linecap="round" stroke-linejoin="round"/>
</svg>
